<?xml version="1.0" standalone="no"?>
<!DOCTYPE svg PUBLIC "-//W3C//DTD SVG 20010904//EN"
 "http://www.w3.org/TR/2001/REC-SVG-20010904/DTD/svg10.dtd">
<svg version="1.0" xmlns="http://www.w3.org/2000/svg"
 width="399.000000pt" height="449.000000pt" viewBox="0 0 399.000000 449.000000"
 preserveAspectRatio="xMidYMid meet">

<g transform="translate(0.000000,449.000000) scale(0.100000,-0.100000)"
fill="#000000" stroke="none">
<path d="M1620 4474 c-19 -2 -82 -14 -140 -25 -463 -92 -839 -482 -915 -950
-86 -530 178 -1037 658 -1264 216 -103 435 -135 676 -99 242 35 472 149 644
318 118 115 170 190 237 339 140 312 147 668 18 962 -22 50 -42 99 -45 110 -9
31 -86 144 -142 208 -165 188 -403 329 -639 377 -100 20 -282 32 -352 24z
m315 -369 c243 -66 439 -232 547 -461 52 -112 71 -203 71 -344 0 -145 -20
-239 -77 -355 -104 -215 -266 -359 -495 -438 -76 -27 -103 -31 -226 -35 -158
-5 -225 7 -350 59 -243 101 -422 309 -492 571 -21 80 -24 299 -4 378 78 316
324 562 631 631 104 23 301 20 395 -6z"/>
<path d="M1485 1759 c-280 -21 -579 -132 -801 -296 -159 -118 -211 -163 -277
-242 -214 -254 -339 -542 -378 -871 -17 -148 -10 -219 25 -265 58 -76 157 -93
237 -40 52 34 67 74 78 216 34 403 222 734 544 952 79 54 179 107 200 107 8 0
35 9 61 21 26 11 97 32 159 47 108 26 123 27 402 27 307 0 357 -5 529 -57 61
-18 76 -20 115 -9 80 21 131 86 131 166 0 115 -68 162 -309 215 -166 37 -465
49 -716 29z"/>
<path d="M3048 1740 c-43 -13 -84 -47 -102 -84 -14 -29 -16 -76 -16 -314 l0
-281 -288 -3 -289 -3 -40 -27 c-48 -32 -73 -80 -73 -143 0 -63 25 -111 73
-143 l40 -27 286 -3 286 -3 3 -286 c3 -320 6 -335 71 -378 80 -53 179 -36 237
41 l29 37 3 294 3 293 277 0 c313 0 334 4 388 76 25 32 29 47 29 99 0 52 -4
67 -29 99 -54 72 -75 76 -388 76 l-277 0 -3 288 -3 289 -29 37 c-46 61 -120
87 -188 66z"/>
</g>
</svg>
