<?xml version="1.0" standalone="no"?>
<!DOCTYPE svg PUBLIC "-//W3C//DTD SVG 20010904//EN"
 "http://www.w3.org/TR/2001/REC-SVG-20010904/DTD/svg10.dtd">
<svg version="1.0" xmlns="http://www.w3.org/2000/svg"
 width="310.000000pt" height="441.000000pt" viewBox="0 0 310.000000 441.000000"
 preserveAspectRatio="xMidYMid meet">

<g transform="translate(0.000000,441.000000) scale(0.100000,-0.100000)"
fill="#000000" stroke="none">
<path d="M151 4379 c-43 -9 -81 -37 -106 -80 -19 -33 -20 -52 -20 -579 0 -495
2 -548 17 -576 18 -32 94 -101 138 -124 13 -7 128 -92 255 -188 409 -312 527
-402 672 -511 l141 -106 -21 -21 c-12 -12 -96 -77 -187 -146 -91 -68 -212
-161 -270 -204 -58 -44 -220 -167 -360 -274 -140 -106 -277 -211 -303 -233
-87 -72 -82 -31 -82 -647 0 -498 1 -548 17 -577 36 -65 112 -101 179 -83 20 6
75 39 121 73 45 35 153 117 238 181 85 65 223 169 305 232 83 63 251 191 375
285 124 94 302 229 395 300 179 135 396 300 608 462 200 153 357 272 562 427
234 176 245 186 245 221 0 34 -4 37 -304 264 -131 99 -338 256 -459 349 -122
93 -240 180 -262 194 -22 14 -114 82 -205 151 -315 240 -466 354 -615 467
-315 239 -516 392 -688 523 -303 231 -311 236 -386 220z"/>
</g>
</svg>
