<?xml version="1.0" standalone="no"?>
<!DOCTYPE svg PUBLIC "-//W3C//DTD SVG 20010904//EN"
 "http://www.w3.org/TR/2001/REC-SVG-20010904/DTD/svg10.dtd">
<svg version="1.0" xmlns="http://www.w3.org/2000/svg"
 width="452.000000pt" height="452.000000pt" viewBox="0 0 452.000000 452.000000"
 preserveAspectRatio="xMidYMid meet">

<g transform="translate(0.000000,452.000000) scale(0.100000,-0.100000)"
fill="#000000" stroke="none">
<path d="M2110 4494 c-326 -30 -593 -105 -862 -240 -435 -221 -777 -568 -994
-1009 -97 -198 -157 -383 -196 -605 -26 -153 -30 -199 -31 -370 -1 -367 69
-672 227 -995 221 -450 566 -795 1018 -1020 345 -171 761 -255 1121 -226 333
26 601 98 868 232 95 47 129 85 129 142 0 69 -43 119 -113 132 -31 6 -54 -1
-164 -53 -271 -127 -490 -179 -793 -189 -342 -11 -620 48 -925 197 -317 154
-594 400 -792 702 -164 249 -268 544 -304 858 -16 142 -7 413 19 560 67 376
251 733 522 1014 237 245 493 406 817 512 177 58 328 84 535 91 341 12 622
-47 923 -191 565 -271 978 -814 1087 -1426 66 -377 2 -918 -130 -1093 -142
-188 -363 -230 -533 -100 -55 41 -87 83 -121 158 l-23 50 -5 775 c-5 828 -3
798 -56 839 -36 29 -112 29 -148 0 -43 -34 -56 -70 -56 -159 0 -44 -3 -80 -6
-80 -4 0 -42 34 -86 75 -226 217 -515 326 -825 312 -206 -9 -404 -72 -576
-184 -92 -60 -260 -228 -318 -318 -121 -186 -189 -413 -189 -625 0 -212 69
-441 187 -623 60 -92 228 -260 320 -320 324 -211 724 -244 1077 -90 119 51
240 135 344 236 52 52 92 84 92 75 0 -34 92 -196 144 -254 126 -140 346 -229
516 -208 80 10 195 50 264 92 83 50 205 173 251 252 105 181 188 637 171 935
-7 108 -34 311 -56 410 -27 125 -106 345 -175 483 -224 450 -567 793 -1017
1017 -297 147 -597 221 -938 229 -85 2 -175 2 -200 0z m360 -1394 c304 -76
543 -312 627 -615 23 -84 27 -120 27 -225 0 -105 -4 -141 -27 -225 -105 -381
-442 -639 -837 -639 -400 0 -742 266 -841 656 -35 136 -33 296 4 433 28 100
83 215 140 290 214 282 571 410 907 325z"/>
</g>
</svg>
