<?xml version="1.0" standalone="no"?>
<!DOCTYPE svg PUBLIC "-//W3C//DTD SVG 20010904//EN"
 "http://www.w3.org/TR/2001/REC-SVG-20010904/DTD/svg10.dtd">
<svg version="1.0" xmlns="http://www.w3.org/2000/svg"
 width="451.000000pt" height="382.000000pt" viewBox="0 0 451.000000 382.000000"
 preserveAspectRatio="xMidYMid meet">

<g transform="translate(0.000000,382.000000) scale(0.100000,-0.100000)"
fill="#000000" stroke="none">
<path d="M1795 3799 c-149 -22 -308 -102 -407 -205 -62 -65 -108 -141 -197
-321 l-74 -150 -261 -5 -261 -5 -100 -34 c-223 -74 -381 -237 -452 -464 l-28
-90 -3 -910 c-3 -960 -2 -1004 42 -1132 84 -245 305 -424 572 -463 94 -13
3164 -13 3259 0 159 23 295 90 406 202 108 108 174 239 199 398 14 93 14 1798
-1 1893 -42 271 -217 480 -474 566 l-100 34 -261 5 -260 5 -92 181 c-78 155
-102 192 -164 260 -123 134 -267 211 -443 236 -85 12 -816 11 -900 -1z m967
-371 c99 -46 134 -93 264 -351 64 -127 124 -240 133 -250 40 -47 68 -51 411
-57 l325 -5 56 -28 c67 -32 142 -109 172 -175 l22 -47 0 -950 0 -950 -22 -48
c-13 -27 -50 -75 -83 -107 -49 -48 -72 -63 -126 -80 -65 -20 -82 -20 -1658
-20 -1432 0 -1598 2 -1646 16 -70 21 -131 63 -180 126 -74 92 -71 45 -68 1084
l3 929 22 47 c30 66 105 143 172 175 l56 28 325 5 c345 5 358 7 401 56 9 11
65 116 125 234 119 239 154 294 214 335 93 64 100 65 585 62 l440 -2 57 -27z"/>
<path d="M2081 2585 c-98 -22 -160 -44 -231 -83 -218 -120 -363 -303 -431
-548 -27 -94 -32 -292 -10 -389 28 -129 102 -276 190 -383 100 -121 307 -244
466 -277 103 -22 267 -22 370 0 283 59 527 277 625 556 142 407 -41 855 -428
1049 -120 61 -206 81 -357 86 -90 2 -150 -1 -194 -11z m282 -340 c189 -40 341
-191 392 -390 50 -198 -46 -428 -229 -547 -164 -106 -388 -106 -552 0 -146 94
-244 272 -244 440 0 120 62 264 154 356 128 129 298 180 479 141z"/>
</g>
</svg>
