<?xml version="1.0" standalone="no"?>
<!DOCTYPE svg PUBLIC "-//W3C//DTD SVG 20010904//EN"
 "http://www.w3.org/TR/2001/REC-SVG-20010904/DTD/svg10.dtd">
<svg version="1.0" xmlns="http://www.w3.org/2000/svg"
 width="62.000000pt" height="61.000000pt" viewBox="0 0 62.000000 61.000000"
 preserveAspectRatio="xMidYMid meet">

<g transform="translate(0.000000,61.000000) scale(0.100000,-0.100000)"
fill="#000000" stroke="none">
<path d="M220 591 c-83 -26 -160 -98 -190 -178 -29 -78 -28 -85 21 -81 37 3
42 6 53 39 21 62 54 97 117 126 56 27 59 30 59 66 0 40 -8 43 -60 28z"/>
<path d="M342 559 c3 -37 6 -42 39 -53 62 -21 97 -54 126 -117 27 -57 29 -59
67 -59 l38 0 -7 38 c-17 93 -91 177 -186 213 -74 28 -81 26 -77 -22z"/>
<path d="M223 430 c-30 -18 -63 -65 -63 -90 0 -5 18 -10 41 -10 51 0 78 29 79
83 0 43 -10 46 -57 17z"/>
<path d="M340 410 c0 -27 7 -47 20 -60 21 -21 100 -29 100 -10 0 25 -33 72
-63 90 -47 29 -57 26 -57 -20z"/>
<path d="M15 243 c10 -55 54 -131 95 -164 34 -29 126 -69 156 -69 12 0 14 10
12 41 -3 37 -6 42 -39 53 -62 21 -97 54 -126 117 -27 57 -29 59 -67 59 l-38 0
7 -37z"/>
<path d="M160 268 c0 -38 71 -108 110 -108 5 0 10 18 10 41 0 30 -6 46 -22 60
-26 21 -98 26 -98 7z"/>
<path d="M358 255 c-19 -26 -25 -95 -8 -95 25 0 72 33 90 63 30 48 26 57 -22
57 -34 -1 -47 -6 -60 -25z"/>
<path d="M527 273 c-4 -3 -7 -14 -7 -23 0 -9 -13 -37 -29 -62 -23 -36 -43 -53
-90 -75 -58 -27 -61 -29 -61 -65 0 -33 3 -38 23 -38 39 0 145 59 177 98 29 36
70 127 70 157 0 11 -11 15 -38 15 -21 0 -42 -3 -45 -7z"/>
</g>
</svg>
