<?xml version="1.0" standalone="no"?>
<!DOCTYPE svg PUBLIC "-//W3C//DTD SVG 20010904//EN"
 "http://www.w3.org/TR/2001/REC-SVG-20010904/DTD/svg10.dtd">
<svg version="1.0" xmlns="http://www.w3.org/2000/svg"
 width="366.000000pt" height="366.000000pt" viewBox="0 0 366.000000 366.000000"
 preserveAspectRatio="xMidYMid meet">

<g transform="translate(0.000000,366.000000) scale(0.100000,-0.100000)"
fill="#000000" stroke="none">
<path d="M2862 3639 c-90 -11 -185 -44 -267 -91 -60 -35 -225 -195 -1207
-1176 -626 -625 -1142 -1148 -1147 -1162 -6 -14 -24 -90 -40 -170 -16 -80 -48
-230 -71 -335 -22 -104 -54 -251 -70 -325 -16 -74 -35 -160 -41 -191 -11 -49
-10 -59 7 -94 27 -55 65 -80 122 -79 26 0 121 17 212 37 212 47 451 98 664
143 93 20 177 39 188 43 29 11 2275 2260 2312 2316 85 128 118 238 118 395 0
127 -24 229 -79 334 -51 96 -182 227 -278 278 -122 64 -292 95 -423 77z m180
-280 c151 -32 275 -149 312 -295 30 -116 12 -245 -44 -334 -16 -25 -104 -119
-195 -210 l-165 -165 -297 298 -298 297 169 169 c98 98 189 181 216 195 94 51
199 67 302 45z m-582 -904 l295 -295 -834 -834 c-786 -786 -838 -836 -880
-845 -26 -6 -154 -33 -286 -61 -132 -28 -280 -60 -329 -71 -48 -11 -90 -18
-92 -16 -2 2 7 53 20 113 27 124 87 403 118 544 l20 95 831 833 c458 457 834
832 837 832 3 0 138 -133 300 -295z"/>
</g>
</svg>
