<?xml version="1.0" standalone="no"?>
<!DOCTYPE svg PUBLIC "-//W3C//DTD SVG 20010904//EN"
 "http://www.w3.org/TR/2001/REC-SVG-20010904/DTD/svg10.dtd">
<svg version="1.0" xmlns="http://www.w3.org/2000/svg"
 width="315.000000pt" height="315.000000pt" viewBox="0 0 315.000000 315.000000"
 preserveAspectRatio="xMidYMid meet">

<g transform="translate(0.000000,315.000000) scale(0.100000,-0.100000)"
fill="#000000" stroke="none">
<path d="M1385 3130 c-597 -53 -1106 -458 -1291 -1029 -57 -176 -89 -420 -64
-495 26 -80 90 -126 175 -126 56 0 92 18 133 64 33 38 35 44 52 202 20 187 77
352 173 500 348 538 1072 676 1597 302 l75 -53 -60 -6 c-132 -13 -197 -89
-182 -215 6 -56 43 -106 101 -133 43 -21 54 -22 353 -19 l310 3 41 28 c23 15
51 45 62 67 20 39 21 54 18 364 l-3 323 -28 36 c-48 63 -121 87 -198 67 -83
-22 -139 -109 -139 -214 0 -20 -2 -36 -5 -36 -3 0 -34 24 -69 53 -272 224
-687 349 -1051 317z"/>
<path d="M2862 1689 c-73 -37 -93 -79 -102 -217 -15 -218 -51 -327 -191 -581
-35 -65 -197 -230 -281 -288 -203 -140 -402 -203 -643 -203 -192 0 -340 33
-500 112 -70 34 -215 129 -215 140 0 5 20 8 45 8 116 0 195 78 195 190 0 67
-29 123 -82 157 l-42 28 -327 0 -327 0 -39 -31 c-78 -64 -78 -60 -81 -412 l-3
-312 27 -50 c31 -56 54 -75 117 -92 61 -16 124 2 170 51 45 45 57 77 57 147 0
30 2 54 4 54 2 0 45 -31 96 -69 205 -154 431 -249 690 -290 100 -16 343 -13
451 5 468 80 854 358 1077 774 52 97 126 318 148 440 9 52 17 149 18 216 1
116 0 122 -27 163 -51 76 -150 102 -235 60z"/>
</g>
</svg>
