<?xml version="1.0" standalone="no"?>
<!DOCTYPE svg PUBLIC "-//W3C//DTD SVG 20010904//EN"
 "http://www.w3.org/TR/2001/REC-SVG-20010904/DTD/svg10.dtd">
<svg version="1.0" xmlns="http://www.w3.org/2000/svg"
 width="462.000000pt" height="458.000000pt" viewBox="0 0 462.000000 458.000000"
 preserveAspectRatio="xMidYMid meet">

<g transform="translate(0.000000,458.000000) scale(0.100000,-0.100000)"
fill="#000000" stroke="none">
<path d="M2149 4497 c-31 -13 -69 -33 -85 -45 -16 -11 -459 -452 -985 -979
-1042 -1045 -985 -981 -1012 -1124 -28 -153 57 -332 197 -414 54 -32 146 -55
218 -55 l58 0 0 -690 c0 -464 4 -706 11 -742 39 -189 196 -343 383 -377 36 -7
210 -11 440 -11 419 0 424 1 470 63 21 28 21 42 26 610 4 414 8 590 17 608 18
40 82 88 140 105 42 12 100 15 295 12 230 -3 245 -4 283 -25 61 -34 92 -64
109 -105 14 -32 16 -113 16 -592 0 -628 -1 -620 71 -656 36 -19 61 -20 432
-20 358 0 401 2 470 20 43 10 98 32 125 47 67 39 147 124 183 195 58 114 59
128 59 876 l0 682 58 0 c165 0 312 92 380 238 24 51 27 68 27 172 0 177 2 174
-349 528 -160 162 -597 596 -971 966 -781 772 -727 729 -905 734 -92 2 -112
-1 -161 -21z m223 -250 c20 -12 450 -433 956 -935 661 -655 926 -925 941 -955
27 -55 26 -92 -2 -141 -36 -64 -71 -76 -217 -76 -101 0 -133 -4 -167 -19 -77
-36 -73 13 -73 -843 0 -473 -4 -777 -10 -799 -13 -48 -75 -118 -124 -140 -37
-17 -72 -19 -363 -19 l-322 0 -3 513 -3 512 -28 65 c-56 133 -171 239 -304
280 -59 18 -93 20 -357 20 -285 0 -294 -1 -365 -25 -127 -43 -214 -123 -279
-255 l-37 -75 -3 -518 -3 -518 -328 3 -328 3 -48 30 c-36 22 -57 45 -77 84
l-28 53 0 767 c0 709 -1 769 -18 800 -34 67 -56 75 -220 81 -90 3 -155 10
-169 17 -54 31 -81 99 -68 170 6 34 111 142 938 971 513 513 948 942 967 952
47 26 97 25 142 -3z"/>
</g>
</svg>
