<?xml version="1.0" standalone="no"?>
<!DOCTYPE svg PUBLIC "-//W3C//DTD SVG 20010904//EN"
 "http://www.w3.org/TR/2001/REC-SVG-20010904/DTD/svg10.dtd">
<svg version="1.0" xmlns="http://www.w3.org/2000/svg"
 width="462.000000pt" height="458.000000pt" viewBox="0 0 462.000000 458.000000"
 preserveAspectRatio="xMidYMid meet">

<g transform="translate(0.000000,458.000000) scale(0.100000,-0.100000)"
fill="#000000" stroke="none">
<path d="M2167 4496 c-32 -13 -75 -36 -95 -50 -20 -14 -463 -449 -983 -968
-897 -893 -949 -947 -980 -1013 -32 -65 -34 -76 -34 -175 0 -97 2 -110 31
-170 65 -137 190 -220 341 -228 72 -4 85 -7 95 -26 8 -15 10 -199 5 -671 -4
-516 -3 -666 8 -727 32 -185 149 -322 325 -380 61 -21 87 -22 463 -26 384 -3
399 -3 440 17 76 37 71 -1 77 651 6 646 2 608 71 669 66 56 95 61 369 61 267
0 289 -3 357 -54 81 -61 77 -28 83 -681 6 -654 1 -618 83 -650 39 -15 88 -16
443 -13 373 4 403 5 461 25 162 54 288 192 322 351 7 36 11 271 11 746 l0 693
74 6 c117 10 196 41 265 103 139 126 178 299 106 464 -26 59 -57 93 -319 358
-160 162 -598 597 -973 968 -633 627 -686 677 -750 707 -57 27 -81 32 -153 35
-72 2 -94 -1 -143 -22z"/>
</g>
</svg>
