<?xml version="1.0" standalone="no"?>
<!DOCTYPE svg PUBLIC "-//W3C//DTD SVG 20010904//EN"
 "http://www.w3.org/TR/2001/REC-SVG-20010904/DTD/svg10.dtd">
<svg version="1.0" xmlns="http://www.w3.org/2000/svg"
 width="450.000000pt" height="446.000000pt" viewBox="0 0 450.000000 446.000000"
 preserveAspectRatio="xMidYMid meet">

<g transform="translate(0.000000,446.000000) scale(0.100000,-0.100000)"
fill="#000000" stroke="none">
<path d="M1521 4400 c-264 -69 -421 -289 -421 -587 l0 -103 140 0 140 0 0 95
c0 118 24 191 84 251 25 25 63 49 99 63 l58 21 1159 0 1159 0 58 -21 c76 -29
133 -86 162 -162 l21 -58 0 -1199 c0 -660 -3 -1200 -6 -1200 -4 0 -226 174
-276 218 -17 14 -18 6 -18 -165 l0 -180 182 -147 c101 -80 198 -151 216 -157
66 -22 141 13 168 77 12 28 14 262 14 1402 0 1335 0 1371 -20 1447 -52 204
-201 353 -405 405 -76 19 -111 20 -1259 19 -1134 0 -1184 -1 -1255 -19z"/>
<path d="M451 3510 c-201 -53 -349 -203 -401 -405 -20 -76 -20 -112 -20 -1519
0 -1352 1 -1443 18 -1475 34 -67 107 -96 172 -68 19 8 216 166 438 351 l402
336 1053 0 c1021 0 1056 1 1132 20 204 52 353 201 405 405 19 75 20 111 20
975 0 864 -1 900 -20 975 -52 204 -201 353 -405 405 -76 20 -111 20 -1399 19
-1273 0 -1324 -1 -1395 -19z m2756 -281 c76 -29 133 -86 162 -162 21 -57 21
-62 21 -937 0 -875 0 -880 -21 -937 -29 -76 -86 -133 -162 -162 l-58 -21
-1080 0 c-898 0 -1085 -2 -1112 -14 -18 -7 -169 -128 -337 -268 l-305 -255 -3
1268 -2 1268 21 57 c29 76 79 129 154 159 l60 25 1302 0 1302 0 58 -21z"/>
<path d="M951 2672 c-52 -26 -76 -65 -76 -122 0 -57 24 -96 76 -122 32 -17 95
-18 899 -18 804 0 867 1 899 18 52 26 76 65 76 122 0 57 -24 96 -76 122 -32
17 -95 18 -899 18 -804 0 -867 -1 -899 -18z"/>
<path d="M951 2112 c-52 -26 -76 -65 -76 -122 0 -57 24 -96 76 -122 31 -17 82
-18 619 -18 646 0 627 -2 674 63 29 39 29 115 0 154 -47 65 -28 63 -674 63
-537 0 -588 -1 -619 -18z"/>
</g>
</svg>
