<?xml version="1.0" standalone="no"?>
<!DOCTYPE svg PUBLIC "-//W3C//DTD SVG 20010904//EN"
 "http://www.w3.org/TR/2001/REC-SVG-20010904/DTD/svg10.dtd">
<svg version="1.0" xmlns="http://www.w3.org/2000/svg"
 width="450.000000pt" height="446.000000pt" viewBox="0 0 450.000000 446.000000"
 preserveAspectRatio="xMidYMid meet">

<g transform="translate(0.000000,446.000000) scale(0.100000,-0.100000)"
fill="#000000" stroke="none">
<path d="M1573 4409 c-171 -29 -330 -144 -403 -293 -45 -91 -60 -157 -67 -289
l-6 -118 139 3 139 3 6 115 c4 90 10 124 26 155 25 47 84 105 133 131 33 18
87 19 1222 22 1174 2 1187 2 1241 -18 37 -14 69 -36 99 -68 84 -89 78 7 76
-1355 l-3 -1207 -145 116 -145 117 -3 -168 c-2 -113 1 -172 9 -181 15 -18 281
-232 341 -274 77 -54 145 -43 202 34 21 27 21 29 21 1419 l0 1392 -22 70 c-48
152 -150 273 -285 340 -138 67 -88 65 -1368 64 -635 -1 -1178 -5 -1207 -10z"/>
<path d="M505 3519 c-221 -38 -383 -184 -453 -409 -15 -50 -17 -178 -19 -1504
l-3 -1449 21 -45 c28 -57 89 -88 144 -73 48 13 51 16 478 372 l380 318 1071 4
c961 2 1076 4 1125 19 194 60 334 196 392 384 l24 79 0 920 0 920 -22 70 c-58
183 -188 314 -373 378 l-65 22 -1325 1 c-729 1 -1347 -2 -1375 -7z m2287 -869
l40 -40 -4 -71 c-3 -65 -6 -74 -36 -100 l-32 -29 -908 0 c-499 0 -913 4 -920
8 -6 5 -23 23 -37 42 -44 60 -30 174 27 214 20 14 123 16 926 16 l904 0 40
-40z m-572 -540 c39 -28 53 -69 48 -141 -4 -54 -8 -66 -36 -90 l-32 -29 -630
0 -630 0 -32 29 c-32 29 -33 31 -33 111 0 80 1 82 33 111 l32 29 626 0 c607 0
627 -1 654 -20z"/>
</g>
</svg>
