<?xml version="1.0" standalone="no"?>
<!DOCTYPE svg PUBLIC "-//W3C//DTD SVG 20010904//EN"
 "http://www.w3.org/TR/2001/REC-SVG-20010904/DTD/svg10.dtd">
<svg version="1.0" xmlns="http://www.w3.org/2000/svg"
 width="449.000000pt" height="451.000000pt" viewBox="0 0 449.000000 451.000000"
 preserveAspectRatio="xMidYMid meet">

<g transform="translate(0.000000,451.000000) scale(0.100000,-0.100000)"
fill="#000000" stroke="none">
<path d="M2086 4489 c-682 -52 -1307 -416 -1688 -982 -172 -256 -285 -533
-344 -847 -22 -120 -28 -182 -32 -355 -4 -199 -2 -220 27 -400 50 -299 141
-547 302 -820 99 -168 169 -257 323 -411 335 -334 701 -528 1171 -621 131 -25
156 -27 405 -27 248 0 274 2 405 27 210 41 464 126 592 198 263 149 385 240
573 428 266 267 442 563 554 933 61 202 87 366 93 590 8 285 -24 502 -112 767
-162 485 -474 884 -920 1177 -308 203 -647 314 -1045 344 -148 11 -146 11
-304 -1z m291 -1191 c84 -43 133 -141 112 -222 -43 -162 -247 -227 -393 -127
-47 32 -96 114 -96 159 0 81 70 176 151 205 63 24 165 17 226 -15z m13 -686
c25 -11 56 -32 70 -47 l25 -27 0 -598 c0 -686 8 -630 -97 -683 -49 -25 -69
-29 -140 -29 -136 0 -219 52 -234 147 -3 25 -5 295 -2 600 3 538 4 555 24 581
22 30 77 62 127 75 52 13 177 3 227 -19z"/>
</g>
</svg>
