<?xml version="1.0" standalone="no"?>
<!DOCTYPE svg PUBLIC "-//W3C//DTD SVG 20010904//EN"
 "http://www.w3.org/TR/2001/REC-SVG-20010904/DTD/svg10.dtd">
<svg version="1.0" xmlns="http://www.w3.org/2000/svg"
 width="365.000000pt" height="364.000000pt" viewBox="0 0 365.000000 364.000000"
 preserveAspectRatio="xMidYMid meet">

<g transform="translate(0.000000,364.000000) scale(0.100000,-0.100000)"
fill="#000000" stroke="none">
<path d="M1304 3600 c-12 -5 -29 -19 -38 -32 -15 -20 -16 -179 -16 -1750 l0
-1727 24 -28 24 -28 503 -3 c366 -2 511 1 532 9 61 26 57 -108 57 1781 l0
1727 -24 28 -24 28 -509 2 c-279 1 -518 -2 -529 -7z"/>
<path d="M2579 2441 l-29 -29 0 -1161 0 -1160 24 -28 24 -28 466 -3 c528 -3
526 -3 546 65 8 27 10 365 8 1181 l-3 1144 -28 24 -28 24 -475 0 -476 0 -29
-29z"/>
<path d="M109 1823 c-15 -2 -37 -15 -50 -29 l-24 -26 -3 -826 c-2 -609 1 -834
9 -855 24 -58 25 -58 535 -55 l466 3 24 28 24 28 0 829 c0 586 -3 836 -11 853
-6 14 -21 30 -33 35 -20 10 -876 24 -937 15z"/>
</g>
</svg>
