<?xml version="1.0" standalone="no"?>
<!DOCTYPE svg PUBLIC "-//W3C//DTD SVG 20010904//EN"
 "http://www.w3.org/TR/2001/REC-SVG-20010904/DTD/svg10.dtd">
<svg version="1.0" xmlns="http://www.w3.org/2000/svg"
 width="392.000000pt" height="460.000000pt" viewBox="0 0 392.000000 460.000000"
 preserveAspectRatio="xMidYMid meet">

<g transform="translate(0.000000,460.000000) scale(0.100000,-0.100000)"
fill="#000000" stroke="none">
<path d="M1845 4529 c-427 -26 -826 -194 -1154 -487 -259 -231 -483 -604 -561
-935 -54 -229 -68 -512 -36 -712 67 -412 269 -813 622 -1241 196 -237 399
-440 809 -809 264 -238 289 -256 383 -273 91 -16 189 13 272 83 104 87 407
362 572 518 369 350 630 672 820 1012 171 305 278 679 278 970 0 166 -47 426
-109 608 -186 544 -626 982 -1178 1171 -129 45 -329 85 -450 92 -54 2 -111 6
-128 7 -16 2 -79 0 -140 -4z m247 -1250 c127 -26 259 -116 344 -235 71 -100
98 -185 98 -319 1 -177 -50 -301 -174 -424 -112 -109 -229 -155 -400 -156
-133 0 -190 14 -290 72 -220 129 -332 387 -275 632 47 199 224 380 417 427 67
16 210 17 280 3z"/>
</g>
</svg>
