<?xml version="1.0" standalone="no"?>
<!DOCTYPE svg PUBLIC "-//W3C//DTD SVG 20010904//EN"
 "http://www.w3.org/TR/2001/REC-SVG-20010904/DTD/svg10.dtd">
<svg version="1.0" xmlns="http://www.w3.org/2000/svg"
 width="291.000000pt" height="410.000000pt" viewBox="0 0 291.000000 410.000000"
 preserveAspectRatio="xMidYMid meet">

<g transform="translate(0.000000,410.000000) scale(0.100000,-0.100000)"
fill="#000000" stroke="none">
<path d="M1350 4069 c-267 -26 -499 -137 -691 -328 -147 -148 -238 -303 -293
-502 -36 -128 -46 -264 -46 -626 0 -300 0 -302 -23 -330 -93 -112 -191 -334
-242 -543 -24 -100 -31 -381 -11 -505 108 -695 707 -1208 1411 -1207 503 1
955 254 1222 685 93 149 174 380 194 549 14 126 7 376 -15 473 -38 175 -114
353 -213 503 l-55 83 1 302 c2 372 -8 489 -54 643 -61 199 -138 329 -284 475
-53 52 -130 117 -171 144 -139 90 -348 165 -501 180 -129 12 -146 12 -229 4z
m327 -265 c113 -29 256 -101 350 -175 127 -100 247 -290 294 -464 19 -69 23
-114 27 -332 3 -182 1 -253 -7 -253 -6 0 -33 15 -59 34 -156 109 -340 187
-542 230 -380 81 -790 -4 -1111 -230 -27 -19 -53 -34 -59 -34 -16 0 -12 419 5
510 54 295 230 530 488 654 84 41 210 79 297 90 73 9 221 -5 317 -30z m-92
-1775 c81 -30 176 -124 205 -204 32 -87 35 -142 15 -225 -27 -109 -118 -220
-202 -245 -23 -6 -23 -8 -23 -196 l0 -189 -130 0 -130 0 -2 187 c-3 176 -4
188 -23 198 -110 56 -175 138 -200 251 -19 84 -15 136 17 223 32 85 125 175
215 207 60 21 192 18 258 -7z"/>
</g>
</svg>
