<?xml version="1.0" standalone="no"?>
<!DOCTYPE svg PUBLIC "-//W3C//DTD SVG 20010904//EN"
 "http://www.w3.org/TR/2001/REC-SVG-20010904/DTD/svg10.dtd">
<svg version="1.0" xmlns="http://www.w3.org/2000/svg"
 width="291.000000pt" height="410.000000pt" viewBox="0 0 291.000000 410.000000"
 preserveAspectRatio="xMidYMid meet">

<g transform="translate(0.000000,410.000000) scale(0.100000,-0.100000)"
fill="#000000" stroke="none">
<path d="M1321 4069 c-385 -45 -732 -297 -895 -651 -88 -188 -106 -319 -106
-752 l0 -340 -54 -80 c-105 -158 -174 -324 -218 -526 -30 -138 -29 -393 1
-540 47 -225 132 -416 260 -585 381 -501 1011 -692 1619 -489 376 125 696 426
852 801 75 179 119 446 105 633 -19 256 -101 496 -241 706 l-54 80 0 340 c0
433 -18 564 -106 752 -167 362 -510 605 -919 652 -102 11 -139 11 -244 -1z
m379 -274 c47 -15 130 -50 185 -78 82 -43 116 -68 191 -142 110 -109 173 -208
222 -347 l36 -103 4 -273 c3 -227 1 -272 -10 -265 -7 4 -44 29 -83 54 -154
102 -353 181 -545 216 -131 23 -371 23 -505 -1 -181 -33 -414 -129 -555 -230
-25 -18 -51 -36 -58 -40 -11 -7 -13 39 -10 265 l4 274 36 103 c95 270 301 473
569 561 107 35 147 40 294 37 120 -3 152 -7 225 -31z m-148 -1165 c347 -34
652 -201 851 -466 116 -154 204 -358 226 -527 16 -113 13 -290 -4 -393 -58
-330 -268 -634 -560 -810 -72 -44 -235 -108 -345 -135 -83 -21 -118 -24 -275
-24 -164 1 -189 3 -284 28 -397 106 -703 392 -835 778 -53 156 -70 372 -45
556 11 84 65 256 106 338 50 100 140 222 228 311 193 194 446 314 724 343 106
12 105 12 213 1z"/>
<path d="M1383 2040 c-115 -24 -204 -94 -255 -199 -28 -58 -32 -76 -33 -151 0
-73 4 -94 28 -145 34 -72 95 -138 160 -171 l47 -24 0 -185 0 -185 120 0 120 0
0 185 0 185 48 24 c64 33 125 99 159 171 24 51 28 72 28 145 -1 75 -5 93 -33
152 -70 145 -236 230 -389 198z"/>
</g>
</svg>
