<?xml version="1.0" standalone="no"?>
<!DOCTYPE svg PUBLIC "-//W3C//DTD SVG 20010904//EN"
 "http://www.w3.org/TR/2001/REC-SVG-20010904/DTD/svg10.dtd">
<svg version="1.0" xmlns="http://www.w3.org/2000/svg"
 width="408.000000pt" height="406.000000pt" viewBox="0 0 408.000000 406.000000"
 preserveAspectRatio="xMidYMid meet">

<g transform="translate(0.000000,406.000000) scale(0.100000,-0.100000)"
fill="#000000" stroke="none">
<path d="M3437 4030 c-21 -6 -52 -17 -70 -26 -18 -9 -492 -476 -1055 -1037
-818 -818 -1024 -1029 -1032 -1057 -5 -19 -37 -172 -70 -340 -41 -205 -59
-316 -55 -339 8 -44 52 -88 96 -96 23 -4 131 13 338 54 166 34 319 65 339 71
30 8 220 192 1063 1037 1137 1139 1065 1057 1063 1193 -1 109 -27 151 -208
333 -121 123 -169 164 -211 183 -62 28 -141 38 -198 24z m227 -389 c118 -118
138 -142 133 -162 -4 -13 -42 -60 -87 -104 l-80 -80 -158 158 -157 157 86 85
c47 47 95 85 105 85 11 0 77 -58 158 -139z m-372 -368 c82 -81 148 -152 148
-158 0 -5 -361 -371 -802 -812 l-803 -803 -188 -36 c-103 -21 -190 -34 -193
-31 -4 3 10 91 30 194 l36 188 803 803 c441 441 806 802 812 802 5 0 76 -66
157 -147z"/>
<path d="M380 3762 c-154 -40 -272 -150 -332 -308 l-23 -59 -3 -1463 c-3
-1596 -5 -1523 54 -1649 31 -64 119 -157 187 -196 26 -16 82 -37 125 -48 76
-19 114 -19 1542 -17 l1465 3 59 23 c117 44 197 111 260 215 67 112 66 103 66
1020 l0 824 -23 34 c-12 19 -39 42 -59 52 -64 31 -140 -3 -167 -76 -8 -19 -11
-290 -11 -841 0 -581 -3 -823 -11 -847 -19 -55 -55 -95 -111 -123 l-52 -26
-1445 0 c-1381 0 -1448 1 -1486 19 -51 23 -93 65 -116 116 -18 38 -19 105 -19
1486 l0 1445 26 52 c28 56 68 92 123 111 24 8 254 11 802 11 519 0 777 3 796
11 42 16 72 48 84 91 13 50 -10 102 -60 135 l-34 23 -786 -1 c-706 0 -793 -2
-851 -17z"/>
</g>
</svg>
