<?xml version="1.0" standalone="no"?>
<!DOCTYPE svg PUBLIC "-//W3C//DTD SVG 20010904//EN"
 "http://www.w3.org/TR/2001/REC-SVG-20010904/DTD/svg10.dtd">
<svg version="1.0" xmlns="http://www.w3.org/2000/svg"
 width="450.000000pt" height="450.000000pt" viewBox="0 0 450.000000 450.000000"
 preserveAspectRatio="xMidYMid meet">

<g transform="translate(0.000000,450.000000) scale(0.100000,-0.100000)"
fill="#000000" stroke="none">
<path d="M4145 4473 c-11 -3 -321 -105 -690 -228 -925 -307 -2503 -831 -2895
-960 -179 -59 -343 -117 -365 -128 -71 -36 -114 -78 -147 -145 -43 -88 -43
-154 1 -248 29 -63 59 -96 349 -385 316 -316 317 -317 413 -364 76 -37 114
-49 193 -61 154 -23 184 -16 783 183 293 97 535 174 538 171 3 -3 -77 -250
-177 -549 l-183 -544 0 -120 c0 -135 13 -191 72 -315 33 -70 57 -97 342 -383
353 -357 373 -371 501 -372 110 0 190 45 256 145 13 19 228 647 479 1395 251
748 549 1636 662 1974 186 556 206 621 206 680 -1 154 -94 251 -247 257 -39 2
-80 0 -91 -3z"/>
</g>
</svg>
