<?xml version="1.0" standalone="no"?>
<!DOCTYPE svg PUBLIC "-//W3C//DTD SVG 20010904//EN"
 "http://www.w3.org/TR/2001/REC-SVG-20010904/DTD/svg10.dtd">
<svg version="1.0" xmlns="http://www.w3.org/2000/svg"
 width="411.000000pt" height="411.000000pt" viewBox="0 0 411.000000 411.000000"
 preserveAspectRatio="xMidYMid meet">

<g transform="translate(0.000000,411.000000) scale(0.100000,-0.100000)"
fill="#000000" stroke="none">
<path d="M1925 4054 c-263 -40 -448 -129 -621 -299 -150 -148 -232 -285 -290
-480 -36 -122 -45 -349 -20 -476 36 -179 96 -312 207 -459 252 -334 700 -486
1111 -377 256 69 484 232 629 451 60 92 102 186 141 323 20 68 23 101 23 253
0 188 -10 245 -71 400 -126 319 -429 570 -779 646 -70 15 -274 26 -330 18z"/>
<path d="M1780 1615 c-483 -65 -913 -291 -1175 -618 -173 -215 -271 -450 -294
-704 -9 -102 -1 -155 25 -185 45 -50 -31 -48 1711 -48 1569 0 1630 1 1663 19
77 40 89 124 50 333 -112 592 -648 1063 -1349 1184 -184 32 -470 41 -631 19z"/>
</g>
</svg>
