<?xml version="1.0" standalone="no"?>
<!DOCTYPE svg PUBLIC "-//W3C//DTD SVG 20010904//EN"
 "http://www.w3.org/TR/2001/REC-SVG-20010904/DTD/svg10.dtd">
<svg version="1.0" xmlns="http://www.w3.org/2000/svg"
 width="437.000000pt" height="449.000000pt" viewBox="0 0 437.000000 449.000000"
 preserveAspectRatio="xMidYMid meet">

<g transform="translate(0.000000,449.000000) scale(0.100000,-0.100000)"
fill="#000000" stroke="none">
<path d="M1545 4456 c-444 -84 -774 -367 -921 -791 -31 -88 -64 -276 -64 -365
0 -90 33 -282 66 -378 132 -393 472 -692 879 -772 382 -75 769 40 1047 312
112 110 169 193 233 341 60 138 89 246 106 393 10 85 9 119 -5 221 -23 168
-46 252 -109 392 -64 141 -126 229 -237 335 -148 141 -322 237 -530 291 -127
33 -349 43 -465 21z"/>
<path d="M3148 2115 c-186 -37 -370 -132 -508 -262 -198 -186 -305 -422 -317
-699 -6 -149 3 -220 49 -363 51 -160 113 -266 227 -385 201 -209 451 -317 737
-317 245 0 435 67 645 227 230 176 380 486 380 788 0 133 -11 202 -52 329
-115 351 -405 603 -781 681 -93 19 -285 20 -380 1z m859 -557 c18 -13 38 -38
44 -56 24 -72 19 -79 -289 -383 -599 -595 -549 -549 -604 -549 -45 0 -71 18
-199 135 -36 33 -108 98 -160 145 -176 159 -188 175 -175 243 16 84 116 117
193 64 21 -14 58 -45 83 -68 25 -24 92 -85 149 -137 l104 -94 361 361 362 361
49 0 c34 0 59 -7 82 -22z"/>
<path d="M1445 1750 c-191 -21 -416 -93 -585 -187 -222 -123 -422 -302 -547
-488 -93 -139 -175 -314 -210 -450 -80 -306 -100 -473 -63 -532 40 -67 -68
-62 1383 -65 724 -2 1317 -2 1317 -2 0 1 -39 28 -87 60 -98 65 -242 204 -319
307 -148 199 -227 443 -227 702 0 206 43 402 122 560 11 22 16 43 12 47 -4 5
-47 17 -96 29 -76 17 -132 21 -360 24 -148 2 -301 0 -340 -5z"/>
</g>
</svg>
