<?xml version="1.0" standalone="no"?>
<!DOCTYPE svg PUBLIC "-//W3C//DTD SVG 20010904//EN"
 "http://www.w3.org/TR/2001/REC-SVG-20010904/DTD/svg10.dtd">
<svg version="1.0" xmlns="http://www.w3.org/2000/svg"
 width="470.000000pt" height="470.000000pt" viewBox="0 0 470.000000 470.000000"
 preserveAspectRatio="xMidYMid meet">

<g transform="translate(0.000000,470.000000) scale(0.100000,-0.100000)"
fill="#000000" stroke="none">
<path d="M1827 4590 c-752 -79 -1383 -579 -1610 -1275 -67 -204 -82 -309 -82
-570 0 -262 14 -358 86 -580 205 -635 781 -1125 1459 -1241 496 -86 1024 33
1426 322 57 41 82 53 95 47 9 -4 272 -260 583 -568 321 -318 585 -570 608
-582 51 -28 70 -29 124 -2 55 26 90 90 79 147 -7 40 -36 70 -823 845 l-373
368 61 75 c210 261 336 533 393 848 31 172 31 489 0 658 -141 767 -771 1370
-1560 1492 -129 20 -351 28 -466 16z m443 -295 c52 -8 154 -33 225 -55 448
-143 803 -468 991 -907 79 -187 114 -363 114 -588 0 -340 -92 -623 -298 -913
-236 -334 -648 -583 -1062 -642 -109 -16 -360 -16 -470 0 -171 24 -366 88
-522 173 -317 170 -564 433 -704 749 -119 268 -161 571 -119 863 83 578 509
1075 1080 1260 248 81 489 100 765 60z"/>
</g>
</svg>
