<?xml version="1.0" standalone="no"?>
<!DOCTYPE svg PUBLIC "-//W3C//DTD SVG 20010904//EN"
 "http://www.w3.org/TR/2001/REC-SVG-20010904/DTD/svg10.dtd">
<svg version="1.0" xmlns="http://www.w3.org/2000/svg"
 width="455.000000pt" height="454.000000pt" viewBox="0 0 455.000000 454.000000"
 preserveAspectRatio="xMidYMid meet">

<g transform="translate(0.000000,454.000000) scale(0.100000,-0.100000)"
fill="#000000" stroke="none">
<path d="M4175 4494 c-27 -8 -257 -82 -510 -164 -253 -81 -525 -168 -605 -193
-151 -48 -747 -239 -1470 -472 -234 -76 -582 -188 -775 -250 -712 -229 -644
-203 -702 -261 -40 -40 -55 -64 -68 -109 -38 -131 32 -266 165 -316 30 -12
390 -132 800 -269 l745 -248 60 41 c33 22 213 147 400 277 738 513 901 626
936 646 20 12 49 30 64 40 22 14 27 15 21 4 -18 -31 -80 -115 -91 -125 -11 -9
-62 -81 -332 -468 -37 -53 -102 -146 -144 -205 -41 -59 -161 -231 -267 -383
l-191 -276 263 -792 c146 -435 271 -802 279 -814 76 -115 217 -154 339 -94 63
31 119 88 135 139 6 18 79 244 162 503 145 446 241 746 561 1740 76 237 204
635 285 885 226 698 273 849 280 891 9 50 -16 133 -54 186 -57 79 -186 118
-286 87z"/>
</g>
</svg>
