<?xml version="1.0" standalone="no"?>
<!DOCTYPE svg PUBLIC "-//W3C//DTD SVG 20010904//EN"
 "http://www.w3.org/TR/2001/REC-SVG-20010904/DTD/svg10.dtd">
<svg version="1.0" xmlns="http://www.w3.org/2000/svg"
 width="386.000000pt" height="450.000000pt" viewBox="0 0 386.000000 450.000000"
 preserveAspectRatio="xMidYMid meet">

<g transform="translate(0.000000,450.000000) scale(0.100000,-0.100000)"
fill="#000000" stroke="none">
<path d="M1875 4475 c-98 -27 -649 -222 -985 -348 -617 -233 -622 -235 -679
-283 -65 -55 -85 -125 -130 -464 -45 -342 -53 -475 -53 -850 0 -352 7 -476 42
-681 27 -158 51 -233 121 -374 161 -327 500 -682 984 -1031 139 -100 328 -223
468 -303 256 -148 291 -153 453 -71 183 92 474 278 688 439 423 318 725 639
882 936 131 248 164 458 164 1060 0 187 -5 405 -10 485 -14 189 -68 674 -81
725 -26 98 -96 157 -269 225 -138 55 -853 324 -927 349 -32 11 -168 57 -303
104 -135 46 -261 87 -280 90 -19 3 -57 -1 -85 -8z m176 -1501 c138 -41 236
-124 297 -251 36 -76 37 -81 37 -188 -1 -91 -5 -120 -24 -168 -29 -72 -91
-154 -158 -207 l-51 -40 -4 -233 c-2 -193 -6 -237 -20 -262 -73 -133 -256
-155 -355 -42 -18 20 -37 53 -42 74 -6 21 -11 133 -11 249 l0 211 -37 25 c-67
45 -133 121 -171 197 -36 73 -37 77 -37 190 0 113 1 118 36 192 79 166 236
267 415 268 39 1 95 -6 125 -15z"/>
</g>
</svg>
